<svg version="1.1" id="Layer_1" xmlns="http://www.w3.org/2000/svg" x="0" y="0" viewBox="0 0 35 35" xml:space="preserve"><style>.st0{fill:#4e8410}</style><path class="st0" d="M23 27.1c0 1 .8 1.8 1.8 1.8s1.8-.8 1.8-1.8-.8-1.8-1.8-1.8c-.5 0-.9.2-1.2.5-.5.4-.7.9-.6 1.3zM10.7 27.1c0 1 .8 1.8 1.8 1.8s1.8-.8 1.8-1.8-.8-1.8-1.8-1.8c-.5 0-.9.2-1.2.5-.4.4-.6.9-.6 1.3zM27.4 11c-.4 0-.8.4-.8.8v6.8l-13.8 1.8-2.3-10.2c-.1-.4-.4-.6-.8-.6H6.3c-.4 0-.8.4-.8.8s.4.8.8.8H9l2.6 11.4L11 24c-.1.3-.1.5 0 .8.1.2.4.4.7.4h13.9c.4 0 .8-.4.8-.8s-.4-.8-.8-.8H13l.2-.4c.1-.2.1-.4.1-.5l-.2-.7 14.4-1.9c.4-.1.7-.4.7-.8v-7.5c0-.4-.4-.8-.8-.8z"/><path class="st0" d="M17.5 16.6c-.2 0-.4-.1-.6-.2l-3-3c-.3-.3-.3-.8 0-1.2s.8-.3 1.2 0l2.4 2.4 6.7-6.7c.3-.3.8-.3 1.2 0 .3.3.3.8 0 1.2l-7.3 7.3c-.2.1-.4.2-.6.2z"/><path class="st0" d="M17.5 35C7.9 35 0 27.1 0 17.5S7.9 0 17.5 0 35 7.9 35 17.5 27.1 35 17.5 35zm0-33.4C8.7 1.6 1.6 8.7 1.6 17.5s7.1 15.9 15.9 15.9 15.9-7.1 15.9-15.9S26.3 1.6 17.5 1.6z"/></svg>